<?xml version="1.0" encoding="iso-8859-1"?>
<!-- Generator: Adobe Illustrator 16.0.0, SVG Export Plug-In . SVG Version: 6.00 Build 0)  -->
<!DOCTYPE svg PUBLIC "-//W3C//DTD SVG 1.1//EN" "http://www.w3.org/Graphics/SVG/1.1/DTD/svg11.dtd">
<svg version="1.1" id="Capa_1" xmlns="http://www.w3.org/2000/svg" xmlns:xlink="http://www.w3.org/1999/xlink" x="0px" y="0px"
	 width="612px" height="612px" viewBox="0 0 612 612" style="enable-background:new 0 0 612 612;" xml:space="preserve">
<g>
	<g id="Rectangle_49">
		<g>
			<path d="M290.065,318.444L306,334.424l15.935-15.991l0,0l108.823-109.197l-15.936-15.991l-97.557,97.897V17h-22.542v274.142
				l-97.557-97.897l-15.935,15.991L290.065,318.444L290.065,318.444z M308.731,299.699L306,302.441l-2.731-2.743H308.731z
				 M498.667,481.667c12.523,0,22.666-10.144,22.666-22.667c0-12.512-10.143-22.667-22.666-22.667S476,446.488,476,459
				C476,471.523,486.144,481.667,498.667,481.667z M0,368.333v181.334h612V368.333H0z M589.333,527H22.667V391h566.667V527z
				 M147.333,595h306v-22.667h-306V595z"/>
		</g>
	</g>
</g>
<g>
</g>
<g>
</g>
<g>
</g>
<g>
</g>
<g>
</g>
<g>
</g>
<g>
</g>
<g>
</g>
<g>
</g>
<g>
</g>
<g>
</g>
<g>
</g>
<g>
</g>
<g>
</g>
<g>
</g>
</svg>
